<?xml version="1.0" encoding="utf-8"?>
<!-- Generator: Adobe Illustrator 16.0.4, SVG Export Plug-In . SVG Version: 6.00 Build 0)  -->
<!DOCTYPE svg PUBLIC "-//W3C//DTD SVG 1.1//EN" "http://www.w3.org/Graphics/SVG/1.1/DTD/svg11.dtd">
<svg version="1.1" id="Layer_1" xmlns:sketch="http://www.bohemiancoding.com/sketch/ns"
	 xmlns="http://www.w3.org/2000/svg" xmlns:xlink="http://www.w3.org/1999/xlink" x="0px" y="0px" width="56.689px"
	 height="56.69px" viewBox="-3.345 -3.345 56.689 56.69" enable-background="new -3.345 -3.345 56.689 56.69" xml:space="preserve">
<title>Untitled 2</title>
<desc>Created with Sketch.</desc>
<g id="Page-1" sketch:type="MSPage">
	<g id="contact" sketch:type="MSLayerGroup">
		<g id="Group" sketch:type="MSShapeGroup">
			<path id="Shape" fill="#231F20" d="M33.965,22.117L33.965,22.117c-2.209,1.251-5.107,2.618-8.542,3.632
				c-0.71,0.181-1.2,0.087-1.435,0.009c-3.459-1.446-5.87-2.602-8.003-3.82c-0.015-0.007-0.023-0.01-0.039-0.019
				c-1.319-0.729-1.333,0-1.333,0v8.435c0,1.152,0.934,2.084,2.083,2.084h15.981c1.149,0,2.082-0.932,2.082-2.084v-8.237
				C34.76,21.635,33.965,22.117,33.965,22.117L33.965,22.117z"/>
			<path id="Shape_1_" d="M25,1C11.192,1,0,12.193,0,26c0,13.807,11.192,25,25,25c13.807,0,25-11.193,25-25C50,12.193,38.807,1,25,1
				L25,1z M38.76,33.733c0,1.149-0.933,2.083-2.082,2.083H13.322c-1.149,0-2.083-0.934-2.083-2.083V18.267
				c0-1.15,0.934-2.083,2.083-2.083h23.355c1.149,0,2.082,0.933,2.082,2.083V33.733L38.76,33.733z"/>
		</g>
	</g>
</g>
</svg>
